<svg version="1.1" id="Layer_1" xmlns="http://www.w3.org/2000/svg" xmlns:xlink="http://www.w3.org/1999/xlink" x="0px" y="0px"
	 width="100%" viewBox="0 0 976 1024" enable-background="new 0 0 976 1024" xml:space="preserve">
<path fill="#2c2f7a" opacity="1.000000" stroke="none" 
	d="
M456.834656,406.162354 
	C462.053497,411.100006 467.325287,415.511963 471.915924,420.545166 
	C480.137054,429.558990 489.944000,436.197418 500.733612,441.645386 
	C503.057373,442.818695 504.605225,442.148651 506.712006,441.240631 
	C525.759888,433.030579 538.693542,417.042358 554.084656,404.197662 
	C559.836609,399.397339 565.305786,394.257263 570.882080,389.247803 
	C572.656433,387.653809 574.449890,385.965393 577.052002,387.030273 
	C579.921631,388.204620 579.870178,390.973724 579.895081,393.432648 
	C579.992554,403.097260 579.963013,412.763214 579.967896,422.428650 
	C579.974487,435.583221 579.969482,448.737793 581.149780,462.282654 
	C599.531372,422.784760 617.926514,383.293121 636.290771,343.787170 
	C654.737976,304.102905 673.154358,264.404327 692.281494,223.210358 
	C708.211731,248.370621 722.848694,272.482788 730.385742,300.783936 
	C732.824402,297.539978 735.060303,294.565765 737.097473,291.855865 
	C738.815491,291.801941 739.384766,292.658661 739.835022,293.553253 
	C749.955872,313.661255 759.291809,334.063599 764.375549,356.164154 
	C766.295105,364.509094 765.464966,372.269592 760.046692,380.195465 
	C765.407471,378.039703 767.825867,373.509308 773.112732,371.439178 
	C786.059814,402.249329 789.609436,432.595337 772.865479,463.027527 
	C776.658936,464.887390 780.099426,462.009155 784.308533,463.630310 
	C779.632629,487.752197 772.498474,510.538391 752.947266,528.004211 
	C760.056519,530.806946 767.504150,528.787964 774.929626,530.505920 
	C772.882935,535.939270 769.200989,539.366089 766.119446,543.155640 
	C754.036011,558.015564 740.237244,570.937866 723.330811,580.228027 
	C718.055847,583.126587 712.424011,585.158630 706.520508,586.434937 
	C699.268799,588.002686 692.969727,587.509705 686.469666,582.547241 
	C675.170288,573.920715 662.241638,568.680908 647.526550,569.296570 
	C636.171265,569.771667 629.027405,579.838684 632.404480,590.735474 
	C632.809143,592.041321 633.557373,592.713806 634.839294,592.836121 
	C635.832214,592.930786 636.834167,592.947083 637.832703,592.965271 
	C649.858704,593.184326 649.924316,593.182556 649.933044,605.449402 
	C649.969971,657.276550 649.973633,709.103638 649.965088,760.930786 
	C649.963684,769.274536 649.906494,769.269287 641.742249,769.269897 
	C609.246094,769.272461 576.749939,769.288025 544.253784,769.277039 
	C535.487244,769.274048 526.967957,770.565491 519.015076,774.387939 
	C512.546265,777.497070 507.686218,782.007141 507.181915,789.790039 
	C507.082092,791.330688 506.880890,792.902588 504.821472,792.971680 
	C503.639252,793.011292 502.970032,792.254395 502.843170,791.147095 
	C501.194183,776.753296 490.180176,773.189026 478.652649,770.504456 
	C473.808685,769.376343 468.780914,769.215271 463.753571,769.227966 
	C431.424225,769.309631 399.094635,769.272949 366.765106,769.264160 
	C359.811523,769.262268 359.753906,769.218445 359.752228,762.333313 
	C359.739166,708.006409 359.807281,653.679260 359.629425,599.352966 
	C359.612305,594.121582 361.479279,592.810120 366.308716,592.890564 
	C376.428314,593.059082 376.431610,592.859070 377.297638,582.931641 
	C377.917114,575.830505 374.476654,570.972717 367.508759,569.849915 
	C352.268799,567.394165 338.304230,571.912170 326.654266,580.937012 
	C316.533600,588.777161 306.969604,588.053223 296.355652,584.217773 
	C280.593201,578.521851 268.138885,568.027161 256.502930,556.440857 
	C248.853165,548.823669 241.680161,540.769043 235.176514,530.683899 
	C243.005508,528.864868 250.444946,530.496216 257.669189,528.181335 
	C238.312973,510.896423 231.141357,487.950043 226.186890,463.532867 
	C230.471344,462.130707 233.857712,464.632172 237.967575,463.300110 
	C220.998459,432.974548 224.529114,402.533447 237.168991,371.993042 
	C240.782425,372.178497 242.269440,374.711975 244.382797,376.168365 
	C246.504745,377.630615 248.444748,379.356903 250.858017,380.875793 
	C242.388107,370.628784 244.905350,359.467102 248.052353,348.476990 
	C253.528625,329.352539 261.627075,311.264069 270.692169,293.597778 
	C271.056366,292.887939 271.668762,292.305450 272.285858,291.508179 
	C276.066406,293.287811 276.658691,297.845062 280.341827,300.017059 
	C287.795593,272.281525 302.496429,248.414078 318.228516,223.059586 
	C355.413483,303.078949 391.980011,381.767517 428.546509,460.456055 
	C428.868225,460.435242 429.189911,460.414429 429.511597,460.393616 
	C429.690094,456.901947 430.009857,453.410828 430.023315,449.918518 
	C430.092010,432.087646 430.078888,414.256500 430.103821,396.425446 
	C430.105927,394.927002 430.096375,393.420959 430.236847,391.932068 
	C430.428650,389.898956 430.846680,387.874420 433.058136,387.038727 
	C435.236389,386.215515 436.914612,387.294373 438.438263,388.738586 
	C444.482635,394.467896 450.532684,400.191193 456.834656,406.162354 
M453.118134,593.297241 
	C451.755310,590.626587 450.210815,588.030334 449.078156,585.265381 
	C447.817780,582.188660 445.796295,581.184143 442.510620,581.206604 
	C424.017822,581.333252 405.521790,581.407715 387.031372,581.159973 
	C382.318970,581.096802 381.167633,582.695862 381.179230,587.186584 
	C381.313904,639.344727 381.327271,691.503601 381.163605,743.661621 
	C381.148132,748.595764 382.768066,749.795837 387.461945,749.764465 
	C414.956299,749.580627 442.453644,749.557739 469.947845,749.765076 
	C480.586914,749.845276 490.403687,752.700806 497.720398,761.164368 
	C499.348724,763.047852 500.683685,765.184875 502.507233,767.690979 
	C503.251404,741.567444 502.080017,716.263000 501.963806,690.950378 
	C501.912567,679.786316 501.758789,668.621948 501.821320,657.458679 
	C501.838440,654.398865 501.047882,652.119080 498.616302,650.086060 
	C479.837921,634.385925 465.126862,615.388550 453.118134,593.297241 
M557.027283,597.400452 
	C545.426147,618.007996 530.607544,635.759766 510.935089,649.171387 
	C508.960754,650.517273 507.977325,652.145630 507.922760,654.534241 
	C507.805084,659.691589 507.409363,664.845276 507.384521,670.001709 
	C507.258392,696.158508 507.211517,722.315613 507.143982,748.472656 
	C507.128723,754.375061 507.141754,760.277527 507.141754,766.179993 
	C516.037903,753.084534 528.678284,749.596191 543.096497,749.645142 
	C569.587158,749.735168 596.078796,749.595886 622.568909,749.743408 
	C626.885315,749.767456 628.771729,748.883606 628.756531,743.985046 
	C628.593994,691.503479 628.612061,639.021057 628.737061,586.539307 
	C628.747253,582.271179 627.239319,581.166626 623.227112,581.204590 
	C605.071838,581.376648 586.913940,581.342346 568.757507,581.268860 
	C566.056091,581.257935 564.451294,582.186401 563.333435,584.648926 
	C561.476196,588.740051 559.356445,592.711914 557.027283,597.400452 
M454.327606,505.196106 
	C467.965271,522.942078 483.498627,538.923767 499.773315,554.231384 
	C502.279236,556.588379 504.065552,557.059814 506.857605,554.480530 
	C522.171997,540.333069 536.652588,525.399902 549.607605,509.063660 
	C558.099426,498.355530 566.152039,487.304352 570.049438,473.876404 
	C576.404602,451.980591 564.642578,436.392456 541.872375,436.208221 
	C529.981506,436.112000 519.778625,440.754791 510.213715,446.968994 
	C505.368439,450.116882 501.594696,450.241455 496.770966,446.928192 
	C486.259827,439.708435 474.690765,435.499542 461.605011,436.247528 
	C449.125183,436.960907 437.676849,445.106995 436.562195,455.325806 
	C435.434845,465.661041 435.972931,475.908081 441.391174,485.380707 
	C445.203949,492.046356 449.370392,498.446106 454.327606,505.196106 
M367.354431,547.160339 
	C371.421600,556.508423 376.549774,565.264587 382.055450,573.825134 
	C383.477173,576.035706 385.200623,577.007263 387.798828,576.996216 
	C401.298126,576.938782 414.797760,576.976257 428.297272,576.949524 
	C429.038483,576.948059 430.011597,577.169922 430.377563,575.837769 
	C428.870392,574.426208 427.308380,572.945251 425.727264,571.485046 
	C386.521393,535.278748 374.233582,477.721100 397.027557,431.722076 
	C401.656250,422.381195 402.140930,415.257324 397.082367,406.581146 
	C392.856689,399.333527 389.754517,391.430908 386.023224,383.540070 
	C356.946259,420.525879 340.368561,487.691742 367.354431,547.160339 
M622.660156,458.092987 
	C630.752136,505.411560 615.015198,544.276855 579.185730,576.995972 
	C592.610291,576.995972 604.603333,576.571045 616.546875,577.155884 
	C623.675476,577.504883 627.884155,575.350525 631.699341,569.059326 
	C645.682983,546.000977 654.705933,521.353638 656.548767,494.448730 
	C658.735779,462.519196 652.358521,432.163971 637.693054,403.639771 
	C634.133057,396.715698 630.354553,389.916656 624.593933,383.163025 
	C618.957214,395.507263 613.626953,407.086029 608.404297,418.713135 
	C607.562500,420.587311 608.805542,422.249115 609.742676,423.829803 
	C615.914734,434.239716 620.125671,445.394440 622.660156,458.092987 
M314.251434,302.683777 
	C310.277435,310.179321 306.419617,317.739990 302.270935,325.137573 
	C300.664642,328.001801 300.859314,330.037201 302.803833,332.744751 
	C320.574646,357.489655 338.163483,382.365204 355.869537,407.156799 
	C357.370514,409.258423 358.428833,411.829193 361.134033,413.222778 
	C361.579651,412.693176 362.131348,412.274536 362.368195,411.721161 
	C367.368103,400.036530 373.512299,389.011292 381.408295,379.027802 
	C383.148682,376.827301 382.215973,375.034637 381.293915,373.055817 
	C366.180603,340.621857 351.073700,308.184906 335.959167,275.751526 
	C335.421387,274.597504 335.249512,273.123199 333.137054,272.745239 
	C326.455383,282.053009 320.458282,292.000366 314.251434,302.683777 
M695.092041,350.627289 
	C699.264099,344.804260 703.343811,338.911835 707.648376,333.188446 
	C709.702942,330.456635 709.885986,328.063873 708.340454,324.951080 
	C701.887390,311.953339 694.786133,299.325623 687.008301,287.089600 
	C683.780151,282.011139 680.867004,276.653992 676.478027,271.863556 
	C675.760559,273.224762 675.263794,274.073914 674.851807,274.962433 
	C660.842285,305.178497 647.114624,335.530304 632.650024,365.526794 
	C628.926758,373.248016 627.244019,379.507172 634.261597,385.823700 
	C635.212341,386.679443 635.676758,388.065582 636.402771,389.182495 
	C641.464722,396.969910 645.340027,405.408020 649.625366,414.340637 
	C664.926575,392.895721 679.799988,372.050385 695.092041,350.627289 
M342.072144,399.401886 
	C327.089020,378.904785 312.105865,358.407715 296.727997,337.370605 
	C287.936035,357.495819 281.678070,377.592041 278.281067,398.570435 
	C277.746246,401.873291 278.945312,404.229309 281.320526,406.498077 
	C297.848785,422.285339 315.958557,436.229706 333.194061,451.190521 
	C337.925812,455.297821 342.789948,459.252594 348.239349,463.818665 
	C350.446106,449.541229 353.255096,436.258850 357.764984,423.406250 
	C358.517578,421.261353 357.233887,419.918060 356.167206,418.466431 
	C351.629181,412.290466 347.062378,406.135620 342.072144,399.401886 
M693.818542,437.306061 
	C705.446411,427.073425 717.820618,417.705780 728.916809,406.850494 
	C731.770874,404.058350 732.813599,401.403564 732.104736,397.167389 
	C729.287781,380.333557 724.550476,364.087219 718.394409,348.222229 
	C717.055176,344.770966 716.106018,341.075623 713.471802,337.835999 
	C712.297913,339.314026 711.315796,340.425629 710.470703,341.633179 
	C693.752991,365.521240 676.721802,389.194550 658.806885,412.187714 
	C653.600159,418.870422 651.674622,424.758698 655.656006,432.356812 
	C656.633606,434.222473 656.897827,436.485992 657.355286,438.595825 
	C659.100525,446.644440 660.790588,454.704956 662.654358,463.481689 
	C673.196167,454.625732 683.234131,446.193085 693.818542,437.306061 
M363.331848,702.499939 
	C363.330170,721.656982 363.440369,740.815186 363.242126,759.970215 
	C363.196930,764.339478 364.524841,765.797607 368.943298,765.666809 
	C381.257324,765.302368 393.592072,764.997375 405.902496,765.308533 
	C423.218292,765.746094 440.519348,765.358215 457.827789,765.281433 
	C468.319824,765.234863 478.793457,765.664429 488.830017,769.384827 
	C492.955566,770.914185 496.420013,773.661804 500.932983,776.094055 
	C498.312683,767.269226 494.079468,760.887451 486.309814,757.148254 
	C480.306061,754.258911 473.967896,753.294861 467.407806,753.292969 
	C439.588501,753.284851 411.769196,753.287598 383.949890,753.273621 
	C377.407806,753.270386 377.111450,753.008423 377.108490,746.612183 
	C377.086700,699.469421 377.074066,652.326599 377.091827,605.183838 
	C377.094849,597.122375 377.160828,597.365295 369.167511,597.117126 
	C364.597839,596.975281 363.203949,598.407715 363.230652,603.050049 
	C363.419312,635.865784 363.331818,668.683105 363.331848,702.499939 
M512.114929,767.644714 
	C510.741302,770.223450 509.270660,772.770142 509.004303,776.499329 
	C516.177307,770.273743 524.157471,767.763123 532.677612,766.423767 
	C538.289917,765.541565 543.922119,765.115112 549.573975,765.135010 
	C579.887756,765.241516 610.201111,765.436035 640.514648,765.603149 
	C643.614197,765.620239 646.361877,765.922363 646.344482,761.125000 
	C646.154419,708.818604 646.159729,656.511597 646.069580,604.204773 
	C646.065918,602.100281 646.809875,599.911560 645.721313,597.881226 
	C644.131775,596.868103 642.421997,597.259216 640.797363,597.236450 
	C632.303955,597.117065 632.292786,597.137878 632.290771,605.445435 
	C632.279541,652.423279 632.277588,699.401062 632.262390,746.378906 
	C632.260132,753.272095 632.234985,753.277283 625.286621,753.279846 
	C596.966675,753.290222 568.646057,753.188965 540.327087,753.358643 
	C528.981079,753.426697 518.984070,756.824036 512.114929,767.644714 
M580.015991,501.500031 
	C581.617432,527.270935 576.347107,551.929260 567.896301,576.274719 
	C592.303101,559.583679 608.171448,536.905762 615.316406,508.553925 
	C622.392578,480.474731 619.194153,453.410614 604.408875,426.708923 
	C598.919983,438.597229 594.556335,449.591522 588.911499,459.883148 
	C581.883789,472.696075 578.369568,485.948395 580.015991,501.500031 
M403.342804,431.937195 
	C385.825867,469.346741 388.102844,505.822815 408.984741,541.160522 
	C417.596161,555.733337 428.800385,568.019958 443.555542,576.700867 
	C443.853668,572.839539 442.218353,569.928955 441.125061,566.856812 
	C434.857513,549.245117 429.274536,531.534912 430.029785,512.445129 
	C430.411469,502.798431 430.040588,493.123535 430.115875,483.462219 
	C430.142395,480.057068 429.471222,476.932343 428.016937,473.825684 
	C421.452057,459.801727 415.041870,445.705414 408.519745,431.661255 
	C407.929169,430.389496 407.730927,428.711334 406.037292,428.196899 
	C404.621735,428.811035 404.380615,430.248322 403.342804,431.937195 
M232.473770,424.087708 
	C233.423386,437.217010 236.647171,449.636932 243.981979,460.757385 
	C245.164200,462.549774 246.162262,464.908386 248.333633,465.382782 
	C256.829437,467.238953 265.447510,468.318604 274.447449,469.170532 
	C272.596191,459.001282 271.174957,449.511871 270.292511,439.918030 
	C269.387421,430.077759 269.976440,420.334198 270.729218,410.563293 
	C270.937347,407.861816 270.257690,405.843506 268.071808,404.041290 
	C259.860962,397.271576 251.793671,390.327972 243.638901,383.489685 
	C242.687454,382.691772 241.851028,381.394653 239.748840,382.135010 
	C234.697525,395.163727 232.309311,408.933807 232.473770,424.087708 
M777.654175,410.871521 
	C776.408325,400.862915 774.609619,390.999908 770.139587,380.871155 
	C760.609070,388.915649 751.687744,396.555115 742.624023,404.021698 
	C740.278076,405.954224 739.793213,407.986267 739.998596,410.936035 
	C740.875916,423.536469 741.351807,436.155975 739.400146,448.725464 
	C738.371765,455.348572 737.404419,461.981110 736.318787,469.214081 
	C742.585327,468.360626 748.147461,466.981476 753.707397,466.990479 
	C762.206665,467.004211 766.312012,462.226318 769.817139,455.389587 
	C776.893494,441.587067 778.612183,426.972015 777.654175,410.871521 
M695.630249,544.102356 
	C688.169189,552.210815 679.875854,559.469360 671.054321,566.917786 
	C677.988281,570.173462 684.334961,572.653442 689.387268,576.948608 
	C695.123718,581.825500 701.114319,581.492126 707.632996,579.907349 
	C711.386108,578.994995 714.906494,577.526978 718.322510,575.803162 
	C736.080322,566.841858 749.887573,553.254272 762.322021,538.077698 
	C762.828430,537.459534 763.396057,536.750732 762.434509,535.460388 
	C748.335571,534.714111 733.797424,534.860352 719.551086,532.893005 
	C708.680115,531.391846 701.370117,534.396667 695.630249,544.102356 
M263.611145,554.886108 
	C266.341736,557.327759 268.996613,559.860840 271.816772,562.194214 
	C281.245422,569.995483 291.261902,576.793640 303.310242,579.956543 
	C309.669189,581.625916 315.554108,581.687622 321.106659,576.989258 
	C325.533417,573.243408 330.870331,570.669189 336.323181,568.510376 
	C337.312103,568.118835 338.678345,567.972107 338.733307,566.069946 
	C326.912811,556.829407 316.113953,546.264893 306.689240,534.330872 
	C305.432068,532.738953 303.811798,532.288574 301.833710,532.400452 
	C289.376434,533.104736 276.912933,533.701843 264.457397,534.434570 
	C258.896820,534.761719 253.349930,535.321655 246.570084,535.876221 
	C251.984512,543.132385 257.478943,548.821350 263.611145,554.886108 
M499.359772,590.248596 
	C501.772064,593.535767 503.446198,597.202209 504.872955,601.782288 
	C508.929718,586.518250 519.720703,580.277222 533.483521,578.175781 
	C537.845154,577.509705 538.883301,575.630615 538.790466,571.660767 
	C538.615112,564.164734 539.470337,556.711914 540.487122,549.283630 
	C541.481873,542.016724 542.385803,534.737366 543.329590,527.463501 
	C540.905029,528.762146 539.307556,530.434326 537.800842,532.184692 
	C528.646851,542.818970 518.211365,552.152710 508.042633,561.768066 
	C504.717987,564.911743 502.277802,565.222839 498.921967,561.801025 
	C491.925873,554.667419 484.544922,547.913086 477.433685,540.889893 
	C473.268494,536.776245 469.318390,532.444824 464.689178,527.602173 
	C467.110291,543.681030 469.949860,558.728271 470.247345,574.064148 
	C470.303711,576.969849 471.867737,577.442749 474.333038,577.848816 
	C483.645721,579.382996 492.651550,581.736633 499.359772,590.248596 
M347.605042,489.160034 
	C347.456970,486.693359 345.686890,486.469421 343.758698,486.195160 
	C335.544159,485.026947 327.343658,483.760010 319.136627,482.538605 
	C307.532501,480.811615 295.927063,479.093048 284.167053,477.347870 
	C284.082733,478.306274 283.894745,478.813629 284.022827,479.221893 
	C289.046631,495.234467 296.794434,509.875946 306.395447,523.583557 
	C307.691284,525.433716 309.502777,525.922485 311.624542,525.807800 
	C321.083344,525.296204 330.544830,524.831482 340.001831,524.288940 
	C343.946838,524.062683 347.883148,523.684753 352.285858,523.339539 
	C350.428406,512.005737 347.619568,501.190887 347.605042,489.160034 
M668.251282,524.002319 
	C678.543152,524.602417 688.838013,525.157654 699.124939,525.832947 
	C701.814697,526.009521 703.394958,524.797852 704.850586,522.700500 
	C713.153870,510.736542 719.972839,498.009186 724.882202,484.287506 
	C725.625916,482.208954 726.737488,480.100159 725.813599,477.362854 
	C706.223816,480.314178 686.861084,483.321350 667.460754,486.061890 
	C664.366516,486.498993 663.176208,487.585724 662.901917,490.618530 
	C662.183716,498.559021 661.852051,506.548309 660.124817,514.378906 
	C658.102051,523.549072 658.144348,523.558411 668.251282,524.002319 
M292.840363,425.668335 
	C287.879700,421.106873 283.105682,416.313293 277.042419,412.320740 
	C276.698853,413.559357 276.416199,414.153809 276.382294,414.762146 
	C275.442841,431.622375 276.403503,448.319031 279.834625,464.916199 
	C280.823456,469.699310 283.330261,471.066437 287.502502,471.618378 
	C299.206757,473.166656 310.892365,474.858398 322.578247,476.542511 
	C330.720398,477.715942 338.850830,478.970276 346.893585,480.174561 
	C348.633911,474.591064 347.327759,471.158447 343.128052,467.899475 
	C326.015381,454.620056 309.419495,440.698914 292.840363,425.668335 
M668.507751,479.604126 
	C686.265015,476.956329 704.004517,474.179474 721.788208,471.723114 
	C729.097778,470.713470 729.282593,470.725739 730.814941,463.703888 
	C732.628723,455.392212 733.884949,447.001404 734.393921,438.536591 
	C734.916748,429.841400 735.345703,421.092957 733.382263,411.951263 
	C732.148438,412.944794 731.362671,413.520477 730.640564,414.167297 
	C710.170654,432.502838 689.718628,450.870544 667.865173,467.562927 
	C663.482178,470.910767 661.974060,474.387421 663.864807,479.636780 
	C665.121155,479.636780 666.418030,479.636780 668.507751,479.604126 
M234.894287,470.422943 
	C233.734177,471.359314 234.175934,472.622742 234.463379,473.655457 
	C237.951416,486.186401 242.096848,498.451508 249.345383,509.423004 
	C254.488678,517.207886 260.474213,524.419067 269.758118,526.894470 
	C279.501770,529.492432 289.384003,526.317383 299.119690,526.557312 
	C299.253967,525.390076 299.439026,524.978455 299.306000,524.766968 
	C290.148682,510.213837 282.397278,494.992218 277.220337,478.538330 
	C276.654968,476.741394 275.272125,475.804504 273.546783,475.558838 
	C260.892609,473.757233 248.229294,472.019775 234.894287,470.422943 
M751.434753,520.964233 
	C765.884094,507.348480 771.934326,489.633667 776.597656,470.922272 
	C773.965881,469.948730 772.020081,470.433502 770.076538,470.726227 
	C759.886169,472.261017 749.720642,474.008636 739.491211,475.212738 
	C735.602844,475.670471 733.666138,477.061096 732.472107,480.839478 
	C727.935547,495.194855 721.482239,508.684875 713.281860,521.335205 
	C712.355225,522.764648 710.703735,524.002625 711.196777,526.370239 
	C717.828003,526.815430 724.449524,527.097595 731.035156,527.744690 
	C738.624573,528.490356 745.164001,526.326538 751.434753,520.964233 
M750.104553,383.613495 
	C751.651733,381.451233 753.159424,379.259369 754.753540,377.132263 
	C759.610291,370.651550 760.274292,363.650238 758.257874,355.896881 
	C754.857849,342.823425 750.189941,330.235443 744.750366,317.913513 
	C742.497925,312.811310 740.561646,307.525055 737.142456,302.512787 
	C730.617004,309.950745 726.216492,318.350220 720.862183,326.082153 
	C718.555603,329.413177 718.238281,332.369415 719.921387,336.214264 
	C727.939392,354.529663 734.173950,373.428650 737.460693,393.219299 
	C737.615723,394.152863 737.822998,395.192963 739.134277,395.804932 
	C743.271057,392.583191 746.173035,388.098297 750.104553,383.613495 
M287.142761,322.301575 
	C283.021515,315.576508 278.835388,308.898529 273.746582,302.833435 
	C273.024323,303.404877 272.659790,303.552704 272.529785,303.816223 
	C263.540985,322.033569 255.431137,340.585693 251.537735,360.673279 
	C251.005783,363.417847 250.685837,366.407501 251.795166,369.063690 
	C256.217285,379.652069 263.597382,388.066498 271.411163,396.051056 
	C272.998047,395.174133 272.700928,394.034576 272.887878,393.116028 
	C276.608215,374.838745 281.348450,356.820374 289.240479,339.890625 
	C292.280090,333.370117 292.476837,328.140442 287.142761,322.301575 
M330.521851,265.182678 
	C327.261169,255.286499 322.214844,246.243835 317.383942,235.735214 
	C306.078461,254.613907 296.181030,272.573059 288.916107,291.994751 
	C284.363678,304.165039 286.784454,313.982605 296.533295,322.802979 
	C306.369202,302.972931 317.822357,284.109161 330.521851,265.182678 
M722.461792,311.863770 
	C726.660461,304.510956 723.292114,297.491028 721.026672,290.715332 
	C715.401001,273.888794 706.638733,258.525543 697.700073,243.288315 
	C696.396057,241.065414 695.376343,238.583542 692.801697,236.401321 
	C688.755615,245.136185 685.043579,253.455917 681.034851,261.630127 
	C679.718933,264.313385 680.260925,266.136047 681.855774,268.413696 
	C691.512817,282.205475 700.222534,296.580841 708.135315,311.450165 
	C710.055176,315.057861 711.438171,319.027039 714.350891,322.414062 
	C717.875732,319.600342 719.722595,315.846008 722.461792,311.863770 
M513.934937,639.354309 
	C533.311523,623.974976 547.453979,604.697693 557.813049,581.529968 
	C546.478882,581.098633 536.170410,580.525574 526.159241,583.800354 
	C515.220093,587.378784 508.600006,596.153320 508.264008,607.752930 
	C507.969757,617.911926 508.018982,628.081482 507.976196,638.246643 
	C507.970215,639.663757 507.501312,641.237488 508.755371,642.517334 
	C510.743286,642.323853 511.853577,640.685364 513.934937,639.354309 
M562.977905,501.410706 
	C559.018433,508.212952 552.522888,513.318237 551.013184,521.822571 
	C548.891724,533.772278 546.705261,545.709595 545.555237,557.780701 
	C544.964783,563.978638 545.451599,570.279175 545.451599,576.981201 
	C548.732849,576.981201 551.725708,576.786255 554.682312,577.030640 
	C558.365173,577.335144 560.373291,575.984192 561.846191,572.457764 
	C573.727478,544.012634 575.311279,514.290955 573.233032,483.567719 
	C570.300293,489.873871 567.113892,495.504639 562.977905,501.410706 
M472.196930,612.325195 
	C480.545502,623.908142 489.994202,634.462524 501.890259,644.619629 
	C501.236420,630.471924 502.513824,617.573425 501.089600,604.697754 
	C500.091309,595.672607 495.107239,589.288879 487.113708,585.396790 
	C476.895386,580.421448 465.978180,581.001526 454.319824,581.584900 
	C459.102966,592.808105 465.315247,602.348145 472.196930,612.325195 
M439.170898,539.526611 
	C441.687134,551.096436 445.598572,562.211914 450.231781,573.078735 
	C451.838257,576.846619 456.080444,578.176331 461.296570,576.866150 
	C465.284210,575.864441 463.781494,572.658875 463.774384,570.286865 
	C463.735901,557.441956 461.289001,544.863464 459.131744,532.272766 
	C458.183289,526.737305 457.997284,520.653748 454.759216,516.036926 
	C448.814117,507.560577 442.372528,499.424835 436.654419,490.625336 
	C437.024689,506.758728 434.414581,522.910461 439.170898,539.526611 
M651.962646,546.255005 
	C649.763611,551.961243 646.918396,557.371460 643.679871,563.342651 
	C647.609558,563.083496 650.978516,562.537720 654.144775,563.470337 
	C661.187378,565.544495 666.533447,562.821350 671.725464,558.331177 
	C680.755554,550.521729 689.546265,542.531433 697.074768,532.862549 
	C696.124451,532.469238 695.701538,532.162048 695.258911,532.130310 
	C683.325500,531.274780 671.390015,530.447205 659.454895,529.615479 
	C657.261353,529.462646 656.753540,530.949341 656.247131,532.675842 
	C654.984558,536.980408 653.575439,541.241882 651.962646,546.255005 
M320.990845,531.378052 
	C318.701355,531.508362 316.391937,531.546448 314.076508,532.843262 
	C314.381622,533.488281 314.544739,534.134094 314.927704,534.598572 
	C323.850677,545.419800 333.999878,554.936279 345.422607,563.079773 
	C346.212524,563.642883 347.259155,564.392761 348.079285,564.279541 
	C354.067749,563.453308 360.075226,562.932007 366.978729,563.263428 
	C360.978516,552.825684 356.820221,542.580444 354.069214,531.787109 
	C353.432526,529.289124 351.660553,529.743408 349.734741,529.864624 
	C340.458069,530.448303 331.171295,530.872070 320.990845,531.378052 
M566.600098,401.119751 
	C556.040710,410.622437 545.481323,420.125122 533.960938,430.492615 
	C550.444336,428.980743 563.938477,431.956451 573.353271,445.302368 
	C573.353271,428.661896 573.353271,412.461731 573.353271,396.043121 
	C570.330933,396.835815 569.036926,399.156860 566.600098,401.119751 
M444.651886,434.965546 
	C453.351715,430.112457 462.834167,429.539429 473.407135,430.350952 
	C460.863434,418.448090 449.044556,407.233063 436.564941,395.391052 
	C436.564941,411.241669 436.564941,425.827484 436.564941,440.884705 
	C439.311584,438.836914 441.661072,437.085266 444.651886,434.965546 
z"/>
<path fill="#2c2f7a" opacity="1.000000" stroke="none" 
	d="
M391.889923,862.317078 
	C392.464783,860.934082 392.914886,859.870972 393.364960,858.807861 
	C393.226837,858.722961 393.088715,858.638062 392.950592,858.553101 
	C388.260773,865.408936 383.417664,872.166870 378.949463,879.164246 
	C376.889801,882.389771 374.970001,883.300964 371.236450,881.737671 
	C361.663300,877.729187 361.643524,877.910583 363.440887,867.576233 
	C364.574982,861.055481 365.523895,854.502441 366.110077,847.804810 
	C363.056824,855.296753 359.766113,862.703430 357.033325,870.310486 
	C355.197388,875.421021 352.315430,874.148071 348.848358,872.650940 
	C345.546478,871.225159 342.342896,870.538147 344.559052,865.346191 
	C350.958801,850.353149 356.975586,835.191956 362.865997,819.989563 
	C364.358490,816.137634 366.045624,815.369019 369.896057,816.804321 
	C381.044281,820.959839 381.145660,820.819092 379.414673,832.616272 
	C378.184784,840.998413 376.758057,849.351746 375.536774,857.735046 
	C375.263641,859.609863 374.703583,861.600342 376.040375,864.114441 
	C379.765106,858.798889 383.253052,853.816284 386.746338,848.837463 
	C390.284210,843.795105 394.064453,838.902466 397.288849,833.667297 
	C399.625244,829.873962 402.199921,829.151184 405.891968,831.321411 
	C406.603760,831.739868 407.411865,831.996765 408.180969,832.315002 
	C417.416016,836.136719 417.639709,833.979370 413.257812,844.828491 
	C407.711121,858.561523 401.962616,872.220093 396.774506,886.087830 
	C394.559021,892.009644 391.360901,889.603088 387.783539,888.372559 
	C384.049622,887.088318 382.210510,885.508728 384.270782,881.139404 
	C387.104370,875.130127 389.297577,868.818848 391.889923,862.317078 
z"/>
<path fill="#2c2f7a" opacity="1.000000" stroke="none" 
	d="
M777.046082,765.904785 
	C769.345215,775.863342 769.340637,775.874146 758.317993,771.174072 
	C753.765808,769.232910 749.238037,767.234436 743.926636,764.926331 
	C744.758362,767.980957 746.708069,768.984619 748.248840,770.236450 
	C752.249756,773.486938 756.279297,776.706970 760.395142,779.809570 
	C762.789246,781.614380 763.868164,783.330872 761.222473,785.787964 
	C760.384094,786.566589 759.733521,787.586609 759.137878,788.580627 
	C756.915039,792.289734 754.685608,792.466003 751.218079,789.634338 
	C738.464783,779.219788 725.502869,769.058960 712.540161,758.903870 
	C709.921326,756.852295 709.482361,755.242310 711.651978,752.381104 
	C719.522156,742.002502 719.423279,741.914978 731.370056,747.173157 
	C736.330994,749.356567 741.097168,752.032227 747.767090,753.530945 
	C741.087463,748.205933 735.544373,743.470947 729.658325,739.209595 
	C725.946594,736.522217 725.360291,734.120667 728.720520,730.921265 
	C730.377075,729.343872 731.224243,726.961365 734.098267,725.764832 
	C738.967041,729.594543 744.049988,733.575623 749.114502,737.580017 
	C758.248230,744.801697 767.331543,752.087952 776.523010,759.235229 
	C779.122314,761.256409 780.075134,763.128540 777.046082,765.904785 
z"/>
<path fill="#2c2f7a" opacity="1.000000" stroke="none" 
	d="
M623.903076,832.115723 
	C627.335938,836.188049 630.544556,839.984680 633.944214,844.007263 
	C634.949646,842.297363 633.835449,841.240784 633.382324,840.221436 
	C631.285461,835.503906 629.069275,830.839050 626.870300,826.167358 
	C623.274536,818.528015 624.570007,816.021362 632.965454,813.926086 
	C635.142090,813.382812 636.007141,814.379333 636.779053,816.052612 
	C644.104492,831.933777 651.434509,847.812927 658.804199,863.673523 
	C659.845947,865.915527 659.548889,867.506409 657.125610,868.450623 
	C656.661011,868.631592 656.220886,868.874695 655.767090,869.083984 
	C644.327148,874.359497 644.350098,874.340637 636.377747,864.520020 
	C632.724915,860.020447 628.961426,855.610596 624.583984,851.539490 
	C628.440247,860.085510 632.296509,868.631470 636.040222,876.928040 
	C635.573486,877.628601 635.453308,877.998413 635.200012,878.161499 
	C625.615662,884.333557 625.225708,884.285278 620.527954,874.296265 
	C614.219482,860.882324 608.146179,847.356934 601.744324,833.988342 
	C600.032043,830.412720 600.707642,828.666870 604.291016,827.144165 
	C617.929504,821.348999 613.708252,819.810425 623.903076,832.115723 
z"/>
<path fill="#2c2f7a" opacity="1.000000" stroke="none" 
	d="
M458.600281,877.971497 
	C460.157806,893.631653 452.667542,903.733887 436.374054,900.439026 
	C432.142487,899.583313 427.860046,898.972412 423.592224,898.304932 
	C420.697601,897.852173 419.813751,896.497498 420.390717,893.460022 
	C423.548859,876.833252 426.612976,860.186401 429.444397,843.501526 
	C430.050873,839.927612 431.593262,839.070923 434.801178,839.685486 
	C441.486450,840.966064 448.224030,841.994019 454.874634,843.429321 
	C461.115601,844.776367 463.620972,848.759705 462.506195,855.169983 
	C461.492126,861.000916 461.593231,867.154419 457.406891,872.096985 
	C455.714478,874.095215 458.359863,875.701904 458.600281,877.971497 
M439.989044,877.272217 
	C433.944214,876.991272 436.556702,882.164124 435.549347,884.810120 
	C434.505829,887.551086 437.165100,888.213257 439.380463,888.653015 
	C443.161163,889.403564 444.894073,887.510559 445.550293,884.071350 
	C446.308624,880.096802 445.064209,877.599304 439.989044,877.272217 
M446.845856,864.115540 
	C448.082642,862.268799 448.349121,860.124573 448.637634,858.009216 
	C448.874542,856.272400 448.768311,854.547668 446.486359,854.294556 
	C444.672241,854.093323 442.293762,852.297913 441.192017,854.866577 
	C439.990479,857.668030 438.552704,861.041687 440.060913,863.834717 
	C441.072052,865.707153 443.980225,866.041504 446.845856,864.115540 
z"/>
<path fill="#2c2f7a" opacity="1.000000" stroke="none" 
	d="
M310.258545,807.309082 
	C313.044159,803.140198 315.514709,799.189453 318.226288,795.411804 
	C321.685455,790.592590 326.256287,789.515442 331.256348,792.538208 
	C336.228577,795.544128 341.095306,798.760071 345.782654,802.192078 
	C350.764709,805.839905 351.557159,810.441711 348.160645,815.675842 
	C340.924774,826.826538 333.586884,837.912659 326.156799,848.934875 
	C322.921783,853.733887 317.924286,854.859802 313.129181,851.894775 
	C308.186859,848.838806 303.344818,845.598267 298.634888,842.194946 
	C293.434387,838.437195 292.610168,834.204529 296.038574,828.819519 
	C300.589478,821.671448 305.369171,814.669128 310.258545,807.309082 
M332.149994,815.743774 
	C333.178345,813.902466 334.980286,812.447571 335.062744,810.006470 
	C332.978027,808.071289 330.713379,806.500061 327.435974,805.556580 
	C321.954071,813.832886 316.565308,822.207214 310.902466,830.391907 
	C308.845093,833.365540 309.516357,834.948486 312.295929,836.791077 
	C315.213074,838.724854 317.158142,838.814209 319.181671,835.553711 
	C323.218292,829.049500 327.556244,822.732361 332.149994,815.743774 
z"/>
<path fill="#2c2f7a" opacity="1.000000" stroke="none" 
	d="
M268.786255,762.809692 
	C260.851471,769.156616 253.230759,775.326111 245.526215,781.389160 
	C240.157562,785.614014 235.560318,785.122009 231.237396,779.922058 
	C227.943787,775.960205 224.682831,771.964050 221.577377,767.854675 
	C217.046249,761.858704 217.570557,757.496887 223.328644,752.814331 
	C233.000931,744.948608 242.673721,737.081421 252.454483,729.351807 
	C259.062164,724.129761 263.162231,724.682007 268.590057,731.246277 
	C271.555359,734.832397 274.479065,738.458069 277.286377,742.168213 
	C281.823883,748.164917 281.347717,752.331970 275.647430,757.250305 
	C273.509705,759.094666 271.262085,760.811707 268.786255,762.809692 
M236.191071,759.542725 
	C233.193436,761.524597 233.434753,763.748596 235.752258,766.064880 
	C237.142700,767.454468 238.069107,770.341858 240.826233,768.145813 
	C249.115997,761.542786 257.345032,754.863586 265.489166,748.301575 
	C261.395203,740.211487 260.528198,739.977112 254.192352,745.019836 
	C248.337158,749.680115 242.529999,754.400818 236.191071,759.542725 
z"/>
<path fill="#2c2f7a" opacity="1.000000" stroke="none" 
	d="
M511.679016,903.682739 
	C509.122101,905.989319 506.393555,906.416077 503.479553,906.373108 
	C498.487274,906.299438 493.492798,906.364136 488.500946,906.275330 
	C481.601837,906.152527 477.951843,902.726929 478.000610,895.781250 
	C478.093964,882.482361 477.287323,869.170349 478.592651,855.882385 
	C479.146088,850.248718 481.721954,847.125977 487.210144,846.889526 
	C493.190186,846.632019 499.201385,846.611450 505.178375,846.905884 
	C511.192810,847.202087 514.270752,850.608215 514.298828,856.540527 
	C514.360962,869.689026 514.297607,882.837952 514.341797,895.986572 
	C514.351074,898.750122 513.855774,901.275757 511.679016,903.682739 
M491.300659,876.500000 
	C491.302979,880.826294 491.466827,885.160339 491.258209,889.476440 
	C491.081573,893.130676 492.846100,893.998047 496.089661,894.001709 
	C499.364716,894.005371 500.996338,893.012634 500.962646,889.439392 
	C500.879456,880.622681 500.945923,871.801514 501.152435,862.986877 
	C501.224152,859.925171 500.133392,858.720459 497.107300,858.981812 
	C494.348175,859.220215 491.149689,858.497009 491.298798,863.023682 
	C491.435669,867.178711 491.310822,871.342346 491.300659,876.500000 
z"/>
<path fill="#2c2f7a" opacity="1.000000" stroke="none" 
	d="
M766.453064,686.270264 
	C778.226257,692.593811 789.661865,698.732666 801.108337,704.850952 
	C807.488708,708.261230 809.006592,712.896729 805.683655,719.297058 
	C803.307495,723.873657 800.871887,728.421875 798.351379,732.920410 
	C795.195007,738.553772 790.623474,740.146484 784.963867,737.206665 
	C773.151184,731.070557 761.417053,724.779419 749.736511,718.394836 
	C744.644653,715.611694 743.133850,710.983643 745.660767,705.634338 
	C748.215820,700.225403 751.059753,694.929993 754.121277,689.789795 
	C756.899475,685.125427 760.578247,684.186096 766.453064,686.270264 
M773.379639,716.049011 
	C777.475891,718.246399 781.614441,720.369507 785.652344,722.669434 
	C788.026917,724.022034 789.682007,723.742798 790.852112,721.187195 
	C791.597473,719.559387 792.425659,717.969543 793.474976,715.837952 
	C783.175171,710.293579 773.167725,704.906616 763.073059,699.472656 
	C760.976013,702.232666 759.509827,704.735718 758.771973,707.792358 
	C763.225891,711.043335 768.064758,713.219238 773.379639,716.049011 
z"/>
<path fill="#2c2f7a" opacity="1.000000" stroke="none" 
	d="
M665.980713,792.878906 
	C675.535095,786.443970 678.795776,787.005066 685.125305,795.954529 
	C690.506042,803.562439 695.880005,811.175293 701.232178,818.803284 
	C707.871582,828.265991 706.482910,836.828247 697.095398,843.868225 
	C693.369751,846.662170 689.453979,849.202515 685.726562,851.994141 
	C683.264893,853.837646 681.526611,853.890198 679.585938,851.103333 
	C669.792419,837.039124 659.886963,823.052063 649.917175,809.112000 
	C648.117065,806.595093 648.532898,805.122375 651.010437,803.463501 
	C655.985779,800.132141 660.799866,796.559937 665.980713,792.878906 
M692.054321,829.104797 
	C686.519287,821.209167 680.958923,813.330994 675.465759,805.406311 
	C673.983154,803.267334 672.241028,803.013550 670.501221,804.723511 
	C668.962952,806.235291 664.902466,806.808533 667.167236,810.183350 
	C673.154175,819.104553 679.467041,827.806946 685.758606,836.750549 
	C688.939758,834.646423 692.159485,833.638184 692.054321,829.104797 
z"/>
<path fill="#2c2f7a" opacity="1.000000" stroke="none" 
	d="
M579.268921,892.821655 
	C579.733459,896.553650 577.663696,897.634949 574.985779,898.205139 
	C572.566284,898.720398 570.151611,899.258301 567.561340,899.824036 
	C566.072449,896.313965 565.980469,892.858032 565.773438,889.419617 
	C564.865356,874.337524 564.003235,859.252319 562.986328,844.177551 
	C562.787781,841.234802 563.448608,839.430237 566.566406,838.742004 
	C581.742737,835.392395 577.398193,832.638855 584.421814,846.556580 
	C590.634521,858.867310 596.551025,871.327820 602.559326,883.741089 
	C603.414612,885.508057 604.622681,887.176208 604.602173,889.509949 
	C601.638245,891.726013 597.908936,892.331116 594.438354,892.733948 
	C590.777527,893.158875 590.823242,889.016785 589.450012,886.789734 
	C587.174988,883.100159 582.708252,882.125671 580.062561,885.160095 
	C578.210388,887.284424 579.470947,889.957031 579.268921,892.821655 
M576.631592,857.814331 
	C576.313721,857.491211 576.560303,856.256897 575.522949,857.122498 
	C575.449158,857.183960 575.523560,857.440796 575.550903,857.603088 
	C576.153137,861.174744 576.745422,864.748047 577.368164,868.316162 
	C577.724304,870.357239 578.258423,872.211365 581.152710,871.175354 
	C580.803101,866.349243 578.129517,862.592407 576.631592,857.814331 
z"/>
<path fill="#2c2f7a" opacity="1.000000" stroke="none" 
	d="
M211.482880,695.437744 
	C217.457306,692.079956 223.077133,688.838806 228.785721,685.762451 
	C234.134537,682.880005 238.872009,684.113220 242.023224,689.344788 
	C244.938370,694.184509 247.715790,699.124390 250.243423,704.175598 
	C253.120712,709.925415 251.600861,714.374084 246.067337,717.617004 
	C245.349899,718.037537 244.627274,718.449341 243.903137,718.858276 
	C236.492477,723.042480 236.602585,722.981873 232.601227,715.646118 
	C230.933792,712.589172 230.760437,710.428101 234.402252,709.000610 
	C237.628113,707.736206 237.460815,705.754883 235.830887,703.118469 
	C234.213989,700.503113 232.962585,698.365723 229.312805,700.539001 
	C221.742386,705.046692 214.036499,709.332947 206.302994,713.557739 
	C203.156876,715.276489 203.249420,717.110840 204.835495,719.995728 
	C206.406525,722.853088 207.730453,724.098389 210.943680,722.103455 
	C217.000565,718.342834 217.053253,724.757080 219.187149,727.361023 
	C221.634216,730.347107 220.352356,732.428406 217.115829,733.876282 
	C215.149948,734.755798 213.363907,736.028992 211.427414,736.984009 
	C206.138077,739.592651 201.581360,738.401978 198.556458,733.417419 
	C195.710922,728.728516 192.978592,723.958557 190.451569,719.091797 
	C187.149261,712.731934 188.466125,708.483032 194.644836,704.921997 
	C200.119492,701.766663 205.657150,698.720642 211.482880,695.437744 
z"/>
<path fill="#2c2f7a" opacity="1.000000" stroke="none" 
	d="
M585.296509,122.182892 
	C585.312134,130.708664 585.312134,138.792206 585.312134,146.875748 
	C585.852112,146.943436 586.392151,147.011124 586.932129,147.078812 
	C590.176270,140.042374 593.682434,133.111969 596.585999,125.937683 
	C599.147766,119.607910 603.420837,123.314606 607.055481,123.693665 
	C611.544373,124.161819 609.749329,127.412346 609.271179,129.792374 
	C607.309937,139.554520 605.181946,149.283203 603.222168,159.045654 
	C602.643372,161.928925 601.696289,163.533508 598.236145,162.745651 
	C594.941284,161.995422 593.061157,160.888092 594.058044,157.075012 
	C595.099304,153.092377 595.838623,149.030792 596.345825,144.903763 
	C594.580994,148.592667 592.621460,152.204010 591.110779,155.994232 
	C589.822021,159.227371 588.283936,160.821671 584.413879,159.939636 
	C580.488892,159.045074 578.127808,157.800171 578.556519,153.132217 
	C578.977051,148.554016 578.648193,143.906982 578.648193,137.909164 
	C577.292358,144.072495 576.197510,148.888565 575.182251,153.721390 
	C574.508423,156.929016 572.623901,157.577438 569.656128,156.819519 
	C566.793152,156.088348 565.382812,154.945862 566.151062,151.596207 
	C568.377563,141.888565 570.269165,132.104538 572.419373,122.378586 
	C572.843750,120.459030 572.395569,117.084244 575.320679,117.442627 
	C578.863647,117.876717 583.618408,116.584488 585.296509,122.182892 
z"/>
<path fill="#2c2f7a" opacity="1.000000" stroke="none" 
	d="
M514.416504,432.498016 
	C503.007782,439.061401 502.888153,439.232819 492.300568,431.843262 
	C478.183716,421.990479 466.998749,408.910034 454.747925,396.347321 
	C488.127899,396.347321 521.507874,396.347321 554.887817,396.347321 
	C555.173218,396.699524 555.458618,397.051758 555.744019,397.403961 
	C541.605225,408.516968 530.375244,422.886902 514.416504,432.498016 
M505.492676,430.641418 
	C519.563171,423.980682 529.532776,412.345917 541.482544,401.747192 
	C516.601318,401.731628 492.768341,401.014343 468.726074,402.221130 
	C477.162109,409.980621 484.304932,418.872650 493.645996,425.265686 
	C497.030914,427.582306 499.994904,431.315857 505.492676,430.641418 
z"/>
<path fill="#2c2f7a" opacity="1.000000" stroke="none" 
	d="
M271.243744,820.826172 
	C266.413239,816.446838 261.893677,812.258179 257.254272,808.206726 
	C254.770187,806.037476 254.422073,804.256653 256.876801,801.620789 
	C268.222717,789.438416 279.477692,777.168335 290.580261,764.764160 
	C293.420135,761.591370 295.370575,761.825745 298.251556,764.657593 
	C303.850494,770.160950 304.020081,770.054077 298.757324,775.851929 
	C291.038239,784.356140 283.260895,792.807495 275.518799,801.290771 
	C274.532104,802.372009 273.608246,803.510498 272.435944,804.878418 
	C274.862488,807.273926 277.041077,809.512573 279.314331,811.650574 
	C284.235291,816.278625 284.043884,816.078186 279.848724,821.018982 
	C276.785034,824.627136 274.312195,824.607178 271.243744,820.826172 
z"/>
<path fill="#2c2f7a" opacity="1.000000" stroke="none" 
	d="
M643.282837,149.867676 
	C643.273560,150.690842 643.273560,151.187241 643.273560,151.683624 
	C643.479736,151.756668 643.685852,151.829712 643.892029,151.902756 
	C645.273682,147.989792 646.779358,144.115021 648.000000,140.152435 
	C649.082642,136.638016 651.122620,137.180557 653.795837,138.113495 
	C656.606384,139.094376 658.003906,140.162720 656.778809,143.495239 
	C653.103882,153.492142 649.658020,163.574112 646.200989,173.649734 
	C645.282349,176.327057 644.060608,177.321548 641.042236,176.259171 
	C633.509338,173.607849 633.427856,173.748489 633.910034,165.708282 
	C634.118774,162.228165 634.486938,158.757599 634.332031,155.143936 
	C632.798950,159.381943 631.104919,163.570435 629.781006,167.872772 
	C628.610596,171.676208 626.258118,170.987885 623.515381,170.129578 
	C620.619141,169.223282 620.053040,167.566345 621.035095,164.809341 
	C624.609558,154.774323 628.132935,144.719757 631.521057,134.620697 
	C632.398376,132.005524 633.714294,131.277115 636.348938,131.951035 
	C644.151978,133.946930 644.780334,134.872452 643.648560,143.067078 
	C643.353882,145.200729 643.401672,147.381683 643.282837,149.867676 
z"/>
<path fill="#2c2f7a" opacity="1.000000" stroke="none" 
	d="
M270.692749,226.716202 
	C260.067291,234.578781 259.254822,234.437851 251.790253,223.825302 
	C248.160583,218.664902 244.451462,213.559631 240.873734,208.363678 
	C237.646759,203.677109 238.177292,200.759781 242.727249,197.365250 
	C244.723145,195.876175 246.752701,194.429581 248.806015,193.020599 
	C255.073456,188.719910 257.389587,189.119736 261.938354,195.431137 
	C265.918243,200.953262 269.796356,206.548691 273.728241,212.105499 
	C278.868164,219.369568 278.483734,221.410065 270.692749,226.716202 
M259.821411,208.631180 
	C258.276062,206.482224 256.699951,204.354523 255.195343,202.177414 
	C254.056046,200.528885 252.777390,200.753174 251.390717,201.750656 
	C250.081711,202.692276 249.094696,203.749832 250.292160,205.442917 
	C253.731644,210.306046 257.183319,215.160599 260.607971,220.034149 
	C261.698090,221.585434 262.915863,221.627533 264.413361,220.621277 
	C266.050995,219.520874 266.676086,218.265213 265.408630,216.496979 
	C263.673706,214.076569 261.949493,211.648468 259.821411,208.631180 
z"/>
<path fill="#2c2f7a" opacity="1.000000" stroke="none" 
	d="
M795.933838,225.290680 
	C797.382202,228.386795 796.684448,230.804337 794.763611,232.970306 
	C789.140747,239.310959 783.580566,245.709930 777.840271,251.942825 
	C774.032593,256.077179 771.377502,256.141815 767.146118,252.574249 
	C764.605469,250.432205 762.062012,248.276886 759.696045,245.948471 
	C756.658691,242.959381 756.154114,239.617096 759.124390,236.235870 
	C764.937439,229.618851 770.765747,223.014465 776.660767,216.470688 
	C779.472717,213.349197 782.752380,213.210236 785.958069,215.791779 
	C789.444641,218.599518 792.914001,221.456619 795.933838,225.290680 
M774.307190,232.799423 
	C772.352112,235.817596 769.037354,237.805222 767.593445,241.293961 
	C769.271362,243.155609 770.762451,245.670517 773.279968,243.037735 
	C777.836548,238.272461 782.132935,233.258392 786.460693,228.434357 
	C785.222900,226.329559 784.028503,225.077286 781.861267,224.713898 
	C779.516113,227.205124 777.138184,229.731201 774.307190,232.799423 
z"/>
<path fill="#2c2f7a" opacity="1.000000" stroke="none" 
	d="
M377.968201,172.190582 
	C374.467255,173.403519 371.305176,174.437424 368.175049,175.560318 
	C363.744415,177.149811 360.650513,175.780334 359.069427,171.379318 
	C356.090118,163.086151 353.200073,154.760773 350.303223,146.438217 
	C348.965271,142.594330 350.505707,139.808212 353.984100,138.305359 
	C357.637360,136.726959 361.436127,135.415115 365.271179,134.344864 
	C370.453766,132.898544 376.866669,139.670731 375.191650,144.797318 
	C374.415131,147.173767 371.756653,147.172180 369.830109,147.860291 
	C366.348419,149.103897 366.820312,145.067642 364.785339,143.800430 
	C361.310059,144.009674 359.429871,145.234497 361.077545,149.415176 
	C362.966064,154.206833 364.550903,159.119400 366.217896,163.996445 
	C366.750671,165.555130 367.352325,166.884872 369.359955,166.122681 
	C370.548737,165.671371 372.232788,165.560699 372.118378,163.768570 
	C372.026093,162.323029 371.875458,160.576843 369.848358,160.436691 
	C366.105255,160.177872 365.931274,157.074219 365.676910,154.651321 
	C365.395782,151.973389 368.261353,152.047226 369.992401,151.404922 
	C377.099762,148.767746 377.104065,148.818192 379.487946,155.930969 
	C380.227325,158.137161 381.014221,160.329666 381.854675,162.499268 
	C383.499847,166.746384 382.509583,169.980713 377.968201,172.190582 
z"/>
<path fill="#2c2f7a" opacity="1.000000" stroke="none" 
	d="
M449.541931,138.565399 
	C449.882812,140.635117 450.157471,142.269562 450.383240,143.910736 
	C451.796478,154.183319 451.341370,154.841476 441.335449,156.695175 
	C439.381317,157.057205 437.402374,157.315323 435.423981,157.511078 
	C429.885895,158.059021 427.701172,156.425186 426.803070,151.083084 
	C425.511963,143.403412 424.221619,135.723373 422.989899,128.034058 
	C421.932831,121.435028 423.957397,118.687675 430.456482,117.756104 
	C433.407074,117.333160 436.359344,116.919838 439.315308,116.536476 
	C443.812073,115.953285 446.285248,118.252037 447.043396,122.414909 
	C447.992767,127.627731 448.662598,132.891464 449.541931,138.565399 
M438.214905,148.369690 
	C440.393921,147.962372 441.955811,147.236099 441.408020,144.428085 
	C440.389313,139.205963 439.546021,133.947449 438.738647,128.687363 
	C438.417297,126.593773 437.730347,125.138748 435.281830,125.502014 
	C432.666168,125.890068 432.176941,127.572693 432.590485,129.881760 
	C433.527618,135.114517 434.435425,140.352951 435.295349,145.598877 
	C435.525299,147.001648 435.793457,148.244965 438.214905,148.369690 
z"/>
<path fill="#2c2f7a" opacity="1.000000" stroke="none" 
	d="
M702.718872,771.295410 
	C712.984741,782.206299 722.990845,792.879089 733.034241,803.516785 
	C739.966675,810.859253 738.605164,809.131836 732.626648,815.227112 
	C732.510254,815.345886 732.374939,815.449280 732.274231,815.579712 
	C730.048828,818.460754 728.136047,817.871887 725.864258,815.398560 
	C717.992310,806.828247 709.979675,798.386902 701.999146,789.916687 
	C698.350586,786.044373 694.744507,782.124634 690.941833,778.407837 
	C688.564514,776.084290 688.676514,774.235413 691.240601,772.309570 
	C691.903198,771.811890 692.608276,771.308960 693.105896,770.663574 
	C696.431458,766.350647 699.516724,766.851685 702.718872,771.295410 
z"/>
<path fill="#2c2f7a" opacity="1.000000" stroke="none" 
	d="
M517.888428,126.082611 
	C514.565430,126.204697 511.614532,126.578728 511.447754,122.243828 
	C511.370880,120.245560 509.537048,120.283615 508.008667,120.270386 
	C506.096649,120.253830 505.345123,121.351685 505.335480,123.107826 
	C505.304443,128.758926 505.272034,134.410156 505.280670,140.061264 
	C505.282928,141.545898 505.937408,142.637360 507.551300,142.836868 
	C508.572815,142.963165 509.647400,142.876343 510.250244,141.956207 
	C511.066956,140.709671 511.045563,139.189697 509.836609,138.362045 
	C507.884613,137.025696 507.721619,135.248642 507.649536,133.175293 
	C507.543304,130.119461 508.877960,128.790024 511.839813,129.253738 
	C520.436523,130.599640 520.385620,127.328796 520.315918,138.252563 
	C520.231140,151.528305 520.264465,151.528534 506.932831,151.361786 
	C496.796967,151.235001 495.756073,150.217941 495.789093,140.214172 
	C495.811035,133.565506 495.828949,126.914963 496.000732,120.269188 
	C496.174316,113.553368 498.129333,111.694290 504.707733,111.644112 
	C507.533661,111.622551 510.360138,111.675209 513.186035,111.651604 
	C516.245605,111.626053 519.373230,112.423119 519.868591,115.597488 
	C520.403259,119.023582 522.254578,123.084885 517.888428,126.082611 
z"/>
<path fill="#2c2f7a" opacity="1.000000" stroke="none" 
	d="
M716.385010,195.508667 
	C707.643677,188.398193 707.441589,177.804169 716.451172,171.765488 
	C723.191528,167.247818 727.567871,174.511917 732.846985,176.872284 
	C736.165466,178.356003 737.298462,181.365967 736.213928,184.810638 
	C735.627441,186.673264 734.367859,188.325211 733.402344,190.066879 
	C732.322449,192.014954 730.825073,192.669662 728.907837,191.272873 
	C727.182617,190.015930 724.118347,189.710983 725.088745,186.366364 
	C725.361755,185.425369 725.801270,184.532654 726.144165,183.668884 
	C725.280945,181.868271 723.717957,181.345657 722.190369,180.793365 
	C717.812134,184.966873 717.817383,185.207596 722.324524,189.037277 
	C727.520142,193.451950 728.317566,198.014145 724.904541,203.993866 
	C723.915283,205.727051 722.895569,207.446014 721.814880,209.123215 
	C719.507874,212.703766 716.307373,213.204529 712.713318,211.404907 
	C710.339783,210.216431 708.113708,208.727020 705.850464,207.325775 
	C698.661987,202.875183 698.085449,199.564850 702.973816,192.838669 
	C704.479675,190.766632 705.999329,190.351547 707.975403,191.741653 
	C709.693848,192.950516 712.973022,193.380859 711.356384,196.689117 
	C709.717834,200.042053 711.587402,201.175446 714.491821,202.219833 
	C716.127075,200.365189 718.841980,198.987473 716.385010,195.508667 
z"/>
<path fill="#2c2f7a" opacity="1.000000" stroke="none" 
	d="
M686.446167,151.741028 
	C688.140198,152.508789 689.461792,153.227905 690.846436,153.792252 
	C693.621033,154.923233 694.415100,156.619873 693.580811,159.677948 
	C690.780701,169.941513 688.286804,180.288361 685.629578,190.591415 
	C685.164062,192.396423 685.151978,195.247971 682.116089,193.950180 
	C679.773560,192.948837 676.128357,192.743851 676.736572,188.602509 
	C676.856934,187.783386 677.050720,186.964828 677.308655,186.178177 
	C677.975037,184.146317 676.970337,183.100494 675.266541,182.263702 
	C673.664856,181.477036 672.306824,181.565750 671.396912,183.137360 
	C668.022766,188.965393 664.479553,186.097321 661.015137,183.716614 
	C660.345703,181.856812 661.496826,180.916397 662.254395,179.889175 
	C668.479065,171.447800 674.697998,163.001572 681.013489,154.628342 
	C682.232605,153.011993 683.243896,150.638748 686.446167,151.741028 
z"/>
<path fill="#2c2f7a" opacity="1.000000" stroke="none" 
	d="
M228.116516,246.741211 
	C232.748199,247.047318 234.017776,245.624374 232.041962,242.194107 
	C230.027679,238.697067 233.011292,237.851471 234.581284,236.246964 
	C236.398849,234.389450 237.951508,235.104401 239.655548,236.763000 
	C245.587845,242.537109 245.684738,245.595322 239.614288,251.160187 
	C228.435745,261.407745 227.473251,260.601868 218.808212,250.361588 
	C214.940811,245.791122 210.917374,241.352600 207.055588,236.777512 
	C203.447159,232.502594 203.691315,229.487839 207.863785,225.576523 
	C209.439392,224.099518 211.325089,222.921478 212.752426,221.323944 
	C217.560837,215.942032 222.561371,216.238220 227.547897,222.884720 
	C229.416367,225.375183 228.454224,226.742859 226.628784,228.264404 
	C224.941406,229.670883 223.491104,232.228836 220.913834,229.428986 
	C220.368973,228.837067 219.661209,228.395111 218.978943,227.844025 
	C214.778839,229.639618 214.634766,231.849640 217.595459,234.960297 
	C221.147141,238.691864 224.456741,242.653854 228.116516,246.741211 
z"/>
<path fill="#2c2f7a" opacity="1.000000" stroke="none" 
	d="
M323.811279,188.044647 
	C319.554413,178.780853 315.528809,169.814972 311.288422,160.951843 
	C309.910187,158.071030 310.252960,156.422165 313.323090,155.143524 
	C317.778534,153.287964 322.134888,151.183350 326.472656,149.060623 
	C329.130341,147.760086 330.380981,148.864578 331.429108,151.250000 
	C332.475098,153.630630 333.151062,155.665710 330.016907,156.937012 
	C328.320465,157.625122 326.681763,158.454178 324.998505,159.176483 
	C322.599243,160.206024 321.705719,161.662674 322.956543,164.282288 
	C324.253815,166.999100 325.958984,166.740036 328.262360,165.751068 
	C331.005157,164.573486 333.920044,161.404266 336.229492,166.796646 
	C337.783386,170.424973 336.115631,171.457550 333.408569,172.736084 
	C327.672791,175.445053 327.666260,175.705414 331.383240,181.025024 
	C334.412598,180.782166 336.889923,178.952255 339.568451,177.727280 
	C342.635559,176.324600 343.724121,178.115234 344.874329,180.387802 
	C346.053925,182.718399 346.011383,184.390015 343.293213,185.558289 
	C339.316742,187.267395 335.317017,188.974960 331.524750,191.045105 
	C327.779510,193.089569 325.273468,192.712296 323.811279,188.044647 
z"/>
<path fill="#2c2f7a" opacity="1.000000" stroke="none" 
	d="
M289.619293,201.317490 
	C285.407196,193.930893 281.467499,186.810043 277.279358,179.838425 
	C275.507416,176.888809 275.967743,175.227722 278.945038,173.483612 
	C281.855621,171.778580 283.585419,171.882629 285.281677,175.024170 
	C288.514343,181.011185 292.308228,186.705124 295.359772,192.776733 
	C297.642639,197.318893 300.065582,198.807983 304.393127,195.359009 
	C308.118988,192.389557 309.570068,195.458176 311.092224,198.103012 
	C311.982361,199.649597 311.784851,200.984451 310.169678,201.904938 
	C305.302216,204.678818 300.419220,207.425385 295.112885,210.425369 
	C293.187500,207.248108 291.489349,204.445847 289.619293,201.317490 
z"/>
<path fill="#2c2f7a" opacity="1.000000" stroke="none" 
	d="
M762.383972,200.181152 
	C755.747559,209.157318 749.260132,217.791885 742.929443,226.539963 
	C741.025757,229.170547 739.347717,230.058014 736.448608,227.822021 
	C733.708435,225.708618 732.931824,224.036697 735.349243,220.939774 
	C741.583862,212.952759 747.446899,204.676514 753.523499,196.564651 
	C754.633179,195.083420 755.639648,192.381729 758.042664,193.909637 
	C760.113220,195.226181 763.795349,195.870697 762.383972,200.181152 
z"/>
<path fill="#2c2f7a" opacity="1.000000" stroke="none" 
	d="
M548.222168,142.935150 
	C547.919922,145.192444 547.335632,147.019455 547.440796,148.805893 
	C547.689270,153.028214 545.697693,153.753540 541.940002,153.440689 
	C537.895264,153.103912 538.244934,151.005447 538.467896,148.000168 
	C539.304260,136.731567 540.491577,125.509232 541.925476,114.364059 
	C549.566711,112.478561 550.783020,113.318527 550.270020,120.644310 
	C549.759338,127.936325 548.938293,135.206589 548.222168,142.935150 
z"/>
<path fill="#2c2f7a" opacity="1.000000" stroke="none" 
	d="
M400.275299,125.329285 
	C403.452698,136.852127 406.318695,148.128494 409.332397,159.365234 
	C410.210815,162.640472 408.355011,163.449722 405.863068,164.033463 
	C403.432770,164.602768 401.348022,164.967072 400.534821,161.580826 
	C397.970673,150.903702 394.827362,140.349731 392.685852,129.593292 
	C391.482330,123.548294 396.859192,125.492493 400.275299,125.329285 
z"/>
<path fill="#2c2f7a" opacity="1.000000" stroke="none" 
	d="
M402.002960,697.184814 
	C402.001648,694.778137 402.001648,692.809753 402.001648,691.174927 
	C400.475464,689.860168 399.045929,690.385864 397.786102,690.080688 
	C394.187439,689.208679 392.708710,686.880554 393.790710,683.389709 
	C394.623993,680.701355 395.981567,678.175903 397.097992,675.574646 
	C399.716248,669.473999 402.042877,663.432861 403.141144,656.683533 
	C406.341736,637.015076 423.960327,622.751160 443.765686,622.795776 
	C463.885376,622.841125 480.565918,636.739441 484.367004,656.676819 
	C487.143097,671.237976 483.053070,683.882202 472.517914,693.992737 
	C467.628845,698.684692 466.096008,703.691345 466.540619,710.026428 
	C466.842651,714.330017 466.639160,718.672119 466.580505,722.995972 
	C466.563019,724.288086 466.598907,725.902588 464.737518,725.990173 
	C462.835663,726.079651 462.736450,724.501404 462.733490,723.177002 
	C462.716766,715.679688 462.588776,708.175842 462.860870,700.687317 
	C463.011353,696.545166 466.181488,694.027039 468.976379,691.333862 
	C488.332550,672.682251 483.186462,641.636719 458.948273,630.488647 
	C436.245270,620.046631 409.219818,635.671204 407.150116,660.527527 
	C406.604980,667.074829 403.001373,672.396729 400.717438,678.250183 
	C399.894135,680.360168 399.007965,682.445740 398.144775,684.556335 
	C407.022919,687.433228 407.022827,687.433228 407.033630,696.802185 
	C407.035187,698.135376 407.124847,699.475037 407.024841,700.800476 
	C406.705322,705.034729 408.500153,706.748779 412.850159,706.768433 
	C422.183136,706.810608 422.326416,707.122986 422.323669,716.448364 
	C422.322968,718.780762 422.316193,721.114258 422.242279,723.445007 
	C422.203949,724.654846 421.918976,725.863831 420.397400,725.945129 
	C418.934418,726.023193 418.255737,724.912598 418.162750,723.727417 
	C417.941742,720.909973 417.862518,718.074768 417.875122,715.247498 
	C417.886627,712.663757 417.003967,711.357788 414.165680,711.098022 
	C403.002747,710.076111 402.057251,708.933960 402.002960,697.184814 
z"/>
<path fill="#2c2f7a" opacity="1.000000" stroke="none" 
	d="
M433.352600,660.474243 
	C433.461182,665.780823 436.236572,667.881897 441.572510,668.662903 
	C441.572510,662.232361 441.586578,656.325623 441.557312,650.419067 
	C441.552917,649.533264 441.020813,648.845947 440.222626,648.459167 
	C438.973969,647.854248 437.671051,647.151489 438.093475,645.540466 
	C438.576385,643.698792 440.305542,643.776978 441.794128,643.758728 
	C443.621216,643.736206 445.452087,643.783325 447.276642,643.884644 
	C448.348907,643.944092 449.187225,644.491455 449.444519,645.604919 
	C449.707123,646.741211 449.174866,647.608887 448.156433,647.995239 
	C446.819580,648.502380 445.796356,649.073547 445.808594,650.754700 
	C445.850647,656.528137 445.824738,662.302124 445.824738,668.110962 
	C451.885712,667.632263 453.607635,666.041260 453.752228,660.941833 
	C453.874817,656.619263 453.761414,652.290588 453.828491,647.965759 
	C453.890594,643.961914 456.512634,643.293884 459.660339,643.978088 
	C461.917480,644.468811 463.102600,646.325867 460.724274,647.720581 
	C458.052887,649.287292 458.338074,651.399353 458.310852,653.673828 
	C458.282959,656.002808 458.330200,658.332642 458.299774,660.661560 
	C458.213043,667.301392 456.166412,670.049011 449.720428,672.485840 
	C448.137451,673.084290 445.487396,673.013000 445.893982,675.552124 
	C446.436401,678.939575 444.116241,682.897949 447.570862,685.661621 
	C448.509979,686.412903 449.673187,686.794678 449.401520,688.201111 
	C449.082153,689.854309 447.655426,690.077087 446.308807,690.113647 
	C444.317627,690.167725 442.319061,690.132812 440.330322,690.019226 
	C439.294006,689.960022 438.374329,689.434509 438.087769,688.347473 
	C437.789459,687.215881 438.571960,686.626648 439.357605,685.914062 
	C443.687042,681.987000 442.465820,674.368835 437.139801,672.280090 
	C432.096863,670.302307 429.235199,667.042114 429.613678,661.324158 
	C429.821930,658.177063 429.654510,655.004333 429.633698,651.843323 
	C429.624939,650.513550 429.719604,649.076172 428.173035,648.440186 
	C426.701050,647.834778 425.198639,647.123169 425.910980,645.243652 
	C426.679138,643.216858 428.652618,643.759399 430.256470,643.831116 
	C432.245941,643.920044 433.267822,645.086609 433.286469,647.059753 
	C433.327332,651.385010 433.329987,655.710571 433.352600,660.474243 
z"/>
<path fill="#2c2f7a" opacity="1.000000" stroke="none" 
	d="
M563.241821,670.941284 
	C580.596252,665.727234 597.208130,672.349854 604.814514,687.233765 
	C612.226135,701.736511 608.419128,719.740967 595.597412,729.478638 
	C584.216980,738.121704 571.711243,739.562317 559.064880,732.936218 
	C546.859985,726.541504 540.460388,715.806335 540.843140,701.999023 
	C541.230591,688.021423 548.185242,677.794800 561.014282,671.813782 
	C561.616089,671.533264 562.248535,671.318420 563.241821,670.941284 
M583.010132,694.470764 
	C583.015564,691.426697 580.455200,691.062561 578.316956,689.742859 
	C571.356628,698.547302 566.292358,708.207703 561.783752,718.170227 
	C557.108521,728.500977 557.735718,729.605774 568.907166,732.224976 
	C569.390991,732.338440 569.868713,732.489624 570.358337,732.564026 
	C577.184143,733.601501 579.141418,732.402588 581.502502,725.841675 
	C583.067993,721.491455 583.140503,717.078064 582.150818,712.614868 
	C580.844360,706.722839 579.848755,700.849304 583.010132,694.470764 
M574.015991,686.850769 
	C571.789429,685.009277 569.656311,683.229919 566.552979,685.454224 
	C561.289368,689.226929 555.851135,692.756836 550.605286,696.553223 
	C548.489136,698.084656 546.134399,699.593201 545.318604,702.331421 
	C543.546143,708.280579 548.210571,719.484863 554.652893,723.684631 
	C559.983276,710.908752 566.387146,698.800598 574.015991,686.850769 
M596.157715,723.588745 
	C596.950745,722.339417 598.152344,721.183960 598.464783,719.824219 
	C599.700439,714.447754 592.374451,700.737122 586.217834,697.541931 
	C582.978149,708.536377 591.185242,719.666443 583.777832,730.794312 
	C589.596497,729.258850 592.737549,726.862488 596.157715,723.588745 
M604.683105,703.350525 
	C604.857483,699.466309 603.944275,695.791321 602.573181,692.196411 
	C601.852234,690.306091 600.706543,688.878845 598.512756,689.461243 
	C595.728760,690.200317 592.633728,690.429810 590.291626,693.339294 
	C595.235107,699.245422 599.638733,705.364868 601.985229,713.666382 
	C603.939514,710.006836 604.514832,707.166199 604.683105,703.350525 
M594.358154,685.998901 
	C595.498901,685.500366 597.098633,685.870361 597.668091,684.282410 
	C592.594177,677.200562 589.842773,675.021606 581.846436,685.962708 
	C583.972107,689.247681 586.506042,690.315369 590.039185,687.793457 
	C591.091858,687.041992 592.468262,686.744019 594.358154,685.998901 
M574.620605,675.831787 
	C574.325745,677.426208 572.698181,678.524048 572.894104,680.277466 
	C577.815674,684.301392 579.197388,683.742676 585.044006,675.190674 
	C581.561096,674.207642 578.364319,671.159668 574.620605,675.831787 
M549.768066,691.875977 
	C553.634644,688.751404 558.525940,686.934082 562.231995,682.801697 
	C552.709656,681.160583 549.528931,683.470825 546.583557,693.932617 
	C547.683105,693.228333 548.464233,692.728027 549.768066,691.875977 
M569.815979,675.796387 
	C570.330261,674.556396 570.503174,673.230103 568.614380,673.661072 
	C565.737915,674.317444 562.774841,674.990295 560.124451,677.282898 
	C566.983582,678.618408 566.983582,678.618408 569.815979,675.796387 
z"/>
<path fill="#2c2f7a" opacity="1.000000" stroke="none" 
	d="
M590.664429,621.790894 
	C598.585022,624.260803 598.761902,625.919556 592.795654,638.375366 
	C594.072937,640.667908 597.735779,640.936279 597.689941,644.666077 
	C597.602478,651.787048 594.972595,654.662354 587.566101,654.239807 
	C584.638672,654.072693 582.559326,654.143372 581.410828,657.490295 
	C580.255066,660.858337 578.147949,664.039246 574.081787,664.058167 
	C570.038025,664.076904 568.181519,660.841614 566.542358,657.646484 
	C565.948486,656.488953 565.628601,655.097107 563.796814,654.379517 
	C559.140198,659.052307 555.325073,655.306091 552.301758,652.020691 
	C548.875732,648.297668 550.958618,644.239319 553.631897,640.739014 
	C554.785461,639.228638 555.846924,637.985779 554.200378,635.972595 
	C551.626770,632.825745 549.274475,629.264526 551.553589,625.072021 
	C553.792358,620.953674 558.043091,621.779663 561.834717,621.744751 
	C562.650146,621.737244 563.464600,621.609924 564.461060,621.521790 
	C565.631897,619.205627 564.454285,616.158691 567.894714,614.481628 
	C575.313354,610.865601 577.657166,610.962341 581.320618,618.393311 
	C583.515991,622.846497 586.979736,621.455261 590.664429,621.790894 
M576.360413,630.306824 
	C572.815430,628.304993 570.357239,630.993713 567.825012,632.542419 
	C565.662415,633.865112 564.997803,640.800293 567.016479,642.585876 
	C569.590881,644.862915 572.265869,648.118774 576.506653,645.771667 
	C579.254822,644.250671 581.768921,642.817383 581.858765,638.818481 
	C581.949707,634.767456 580.699402,632.139160 576.360413,630.306824 
M572.896484,660.422363 
	C577.794434,660.391357 578.423889,656.803833 579.212891,653.286560 
	C574.709167,650.665161 571.091553,650.245056 569.617981,652.607300 
	C567.581848,655.871399 570.254028,658.006653 572.896484,660.422363 
M586.142456,625.315369 
	C582.911621,629.328064 584.092285,632.188049 590.222656,634.948181 
	C592.253113,632.765503 594.578125,630.431213 593.437439,627.201050 
	C592.373413,624.187866 589.339600,625.136963 586.142456,625.315369 
M562.787231,631.051880 
	C563.461853,628.571228 565.171875,625.622925 560.648254,625.143860 
	C558.398804,624.905640 555.673523,624.477539 554.561707,627.159912 
	C553.480591,629.768311 554.852234,632.147766 556.828369,633.759460 
	C559.544495,635.974670 560.858337,633.218384 562.787231,631.051880 
M579.083862,622.861328 
	C579.817871,621.415527 578.844116,620.317444 578.269348,619.180786 
	C577.436279,617.533569 576.414001,615.767090 574.401489,615.692566 
	C571.939575,615.601440 572.454651,617.935364 572.088989,619.388428 
	C571.655762,621.109924 569.326050,621.268433 569.139221,623.132874 
	C572.289795,625.758057 575.443542,625.725525 579.083862,622.861328 
M554.334351,648.733826 
	C556.970154,651.693481 560.412109,648.233704 563.317505,650.460388 
	C563.903625,645.969360 562.644897,642.321472 558.858276,641.767883 
	C555.287842,641.245911 554.621704,645.051941 554.334351,648.733826 
M585.041138,644.886414 
	C584.323914,646.893066 583.182068,649.401001 585.733704,650.462341 
	C588.334045,651.543823 591.460449,651.901367 594.019287,648.255981 
	C590.714233,646.969360 590.876770,643.768860 590.050232,641.137207 
	C587.714417,641.476379 586.719849,643.086182 585.041138,644.886414 
z"/>
<path fill="#2c2f7a" opacity="1.000000" stroke="none" 
	d="
M484.311646,484.285248 
	C475.525208,484.436829 467.224762,484.103973 459.486725,480.423492 
	C451.609222,476.676636 448.693390,470.690979 451.620789,464.565186 
	C454.858246,457.790680 462.406342,455.229645 469.860168,458.363159 
	C475.417908,460.699493 479.397461,464.981262 483.217041,469.384796 
	C489.903442,477.093445 495.186707,485.757141 500.027283,494.706482 
	C501.105774,496.700378 501.821625,498.945587 503.736725,500.541595 
	C508.327423,492.906769 512.679871,485.266327 517.433838,477.884399 
	C521.492676,471.581879 526.060120,465.587585 532.259583,461.166199 
	C537.144043,457.682617 542.367432,455.029938 548.487732,458.083954 
	C552.905884,460.288635 555.994446,463.698608 556.246338,468.874847 
	C556.485229,473.782715 553.581848,476.974762 549.630249,479.238190 
	C542.633728,483.245575 534.873291,484.605042 527.013977,484.157837 
	C521.850708,483.864044 518.962036,485.782959 516.813232,490.098236 
	C514.144531,495.457672 511.172333,500.665161 508.428650,505.988495 
	C507.398132,507.987885 506.341858,509.972839 503.850555,510.048737 
	C501.142792,510.131165 499.716522,508.151764 498.713898,505.960602 
	C495.871918,499.749664 492.803772,493.664154 489.102112,487.913757 
	C488.030670,486.249359 487.172516,484.317627 484.311646,484.285248 
M468.616180,477.014282 
	C472.628510,477.891235 476.645477,478.392700 481.491150,477.289062 
	C478.909729,473.207672 475.891541,470.242249 472.739807,467.431396 
	C469.994110,464.982697 467.024048,462.868958 463.022064,463.184326 
	C459.824127,463.436340 457.775330,465.263641 456.873627,468.152405 
	C456.016510,470.898407 458.081818,472.409088 460.018524,473.736298 
	C462.367493,475.346039 465.024017,476.268005 468.616180,477.014282 
M526.551819,475.600494 
	C526.127869,476.540802 524.795715,477.861145 527.159119,477.905304 
	C534.018005,478.033356 540.782776,477.480743 546.769226,473.658264 
	C548.693420,472.429626 550.978577,470.969727 550.047363,468.179474 
	C549.171692,465.555603 547.217346,463.712891 544.306702,463.251892 
	C541.699402,462.838928 539.432678,463.716675 537.281067,465.125244 
	C533.197021,467.798828 530.114990,471.491302 526.551819,475.600494 
z"/>
<path fill="#2c2f7a" opacity="1.000000" stroke="#2c2f7a" 
	d="
M569.967102,641.009888 
	C568.164307,637.722046 569.074768,635.434937 571.941895,634.158203 
	C574.215942,633.145508 576.574097,633.442993 578.080444,635.771606 
	C579.406128,637.821045 579.229797,640.023010 577.526123,641.697021 
	C575.090515,644.089905 572.520874,643.865967 569.967102,641.009888 
z"/>
</svg>