<?xml version="1.0" encoding="iso-8859-1"?>
<!-- Uploaded to: SVG Repo, www.svgrepo.com, Generator: SVG Repo Mixer Tools -->
<svg fill="#000000" height="800px" width="800px" version="1.1" id="Layer_1" xmlns="http://www.w3.org/2000/svg" xmlns:xlink="http://www.w3.org/1999/xlink" 
	 viewBox="0 0 443.303 443.303" xml:space="preserve">
<g>
	<g>
		<g>
			<path d="M438.298,24.223c-3.023-1.22-6.487-0.484-8.752,1.862c-4.306,4.46-7.656,5.032-10.094,5.032
				c-5.267,0-11.438-3.196-17.971-6.58c-7.947-4.116-16.165-8.373-25.33-8.373c-7.982,0-15.251,3.338-21.605,9.921
				c-1.439,1.491-2.244,3.483-2.244,5.556v53.843l-41.712,55.871c-1.812,2.426-2.098,5.666-0.741,8.372
				c1.357,2.705,4.124,4.414,7.151,4.414h10.302v44H306v-9c0-4.418-3.582-8-8-8h-32c-4.418,0-8,3.582-8,8v32h-16v-32
				c0-4.418-3.582-8-8-8h-32c-4.418,0-8,3.582-8,8v32h-16v-32c0-4.418-3.582-8-8-8h-32c-4.418,0-8,3.582-8,8v9h-24v-44h10.302
				c0.007-0.001,0.013-0.001,0.019,0c4.419,0,8-3.582,8-8c0-1.978-0.717-3.788-1.906-5.184L81,85.484V72.139
				c3.244-2.588,5.854-2.976,7.85-2.976c5.268,0,11.438,3.196,17.971,6.58c7.947,4.116,16.165,8.373,25.33,8.373
				c7.982,0,15.251-3.338,21.605-9.921c1.439-1.491,2.244-3.483,2.244-5.556v-37c0-3.262-1.98-6.196-5.004-7.418
				c-3.023-1.22-6.487-0.484-8.752,1.862c-4.306,4.46-7.656,5.032-10.094,5.032c-5.268,0-11.438-3.196-17.971-6.58
				c-7.947-4.116-16.165-8.373-25.33-8.373c-7.982,0-15.251,3.338-21.605,9.921C65.805,27.577,65,29.569,65,31.64v53.843
				l-41.712,55.871c-1.811,2.426-2.098,5.666-0.741,8.372c1.356,2.705,4.124,4.414,7.151,4.414H40v44H8c-4.418,0-8,3.582-8,8v200
				c0,4.418,3.582,8,8,8h122v5c0,4.418,3.582,8,8,8h45h70h45c4.418,0,8-3.582,8-8v-5h122c4.418,0,8-3.582,8-8v-200
				c0-4.418-3.582-8-8-8h-34.698v-44h10.301c0.007-0.001,0.013-0.001,0.02,0c4.419,0,8-3.582,8-8c0-1.978-0.717-3.787-1.906-5.184
				l-41.414-55.473V72.139c3.244-2.588,5.854-2.976,7.85-2.976c5.268,0,11.438,3.196,17.971,6.58
				c7.947,4.116,16.165,8.373,25.33,8.373c7.983,0,15.251-3.338,21.605-9.921c1.44-1.491,2.244-3.483,2.244-5.556v-37
				C443.302,28.379,441.322,25.444,438.298,24.223z M81,35.14v-0.004c3.244-2.589,5.853-2.973,7.85-2.973
				c5.268,0,11.438,3.196,17.971,6.58c7.947,4.116,16.165,8.373,25.33,8.373c2.701,0,5.32-0.382,7.85-1.143v19.17
				c-3.244,2.589-5.852,2.973-7.85,2.973c-5.268,0-11.438-3.196-17.971-6.58c-7.947-4.116-16.165-8.373-25.33-8.373
				c-2.701,0-5.32,0.382-7.85,1.143V35.14z M73,101.512l27.346,36.628H98H48h-2.346L73,101.512z M90,154.14v44H56v-44H90z
				 M130,229.14v169H16v-184h32h50h32V229.14z M274,197.14h16v9v15h-16V197.14z M210,197.14h16v24h-16V197.14z M146,206.14v-9h16v24
				h-16V206.14z M244.999,411.14H191v-72.35c0-14.695,11.955-26.65,26.65-26.65h0.699c14.695,0,26.65,11.955,26.65,26.65V411.14z
				 M290.001,411.14H290h-29v-72.35c0-23.518-19.133-42.65-42.65-42.65h-0.699c-23.518,0-42.65,19.133-42.65,42.65v72.35h-29v-174
				h144V411.14z M420,214.14v184H306v-169v-15h29.302h50H420z M343.302,198.14v-44h34v44H343.302z M387.647,138.14h-2.345h-50
				h-2.346l27.346-36.628L387.647,138.14z M427.302,65.145c-3.244,2.589-5.853,2.973-7.85,2.973c-5.267,0-11.438-3.196-17.971-6.58
				c-7.947-4.116-16.165-8.373-25.33-8.373c-2.701,0-5.32,0.382-7.85,1.143V35.14v-0.004c3.244-2.589,5.853-2.973,7.85-2.973
				c5.268,0,11.438,3.196,17.971,6.58c7.947,4.116,16.165,8.373,25.33,8.373c2.701,0,5.32-0.382,7.85-1.143V65.145z"/>
			<path d="M86.5,313.14h-43c-4.418,0-8,3.582-8,8v43c0,4.418,3.582,8,8,8h43c4.418,0,8-3.582,8-8v-43
				C94.5,316.723,90.918,313.14,86.5,313.14z M78.5,356.14h-27v-27h27V356.14z"/>
			<path d="M338,239.14c-4.418,0-8,3.582-8,8v43c0,4.418,3.582,8,8,8h43c4.418,0,8-3.582,8-8v-43c0-4.418-3.582-8-8-8H338z
				 M373,282.14h-27v-27h27V282.14z"/>
		</g>
	</g>
</g>
</svg>